<svg version="1.1" xmlns="http://www.w3.org/2000/svg" viewBox="0 0 1669.859619140625 767.75" width="1669.859619140625" height="767.75">
  <!-- svg-source:excalidraw -->
  
  <defs>
    <style class="style-fonts">
      @font-face {
        font-family: "Virgil";
        src: url("https://excalidraw.com/Virgil.woff2");
      }
      @font-face {
        font-family: "Cascadia";
        src: url("https://excalidraw.com/Cascadia.woff2");
      }
    </style>
  </defs>
  <rect x="0" y="0" width="1669.859619140625" height="767.75" fill="#ffffff"></rect><g stroke-linecap="round" transform="translate(325 441.75) rotate(0 57.5 42.5)"><path d="M72.33 0.98 C81.43 2.06, 90.74 7.09, 97.41 12.1 C104.09 17.1, 109.69 24.13, 112.37 31.02 C115.06 37.91, 115.8 46.44, 113.51 53.44 C111.21 60.44, 105.37 67.92, 98.59 73.01 C91.81 78.1, 81.97 82.21, 72.83 83.99 C63.69 85.76, 53.01 85.62, 43.76 83.67 C34.52 81.71, 24.35 77.21, 17.35 72.26 C10.34 67.3, 4.4 60.79, 1.75 53.95 C-0.89 47.1, -0.93 38.11, 1.46 31.19 C3.85 24.27, 9.28 17.37, 16.09 12.43 C22.91 7.48, 31.51 2.9, 42.34 1.53 C53.17 0.17, 72.92 2.91, 81.09 4.24 C89.25 5.57, 91.48 9, 91.32 9.5 M82.03 3.92 C90.68 6.2, 100.92 12.89, 106.6 19.08 C112.27 25.28, 115.67 34.19, 116.07 41.06 C116.47 47.94, 113.22 54.38, 109 60.34 C104.78 66.31, 98.98 73.01, 90.76 76.87 C82.53 80.74, 69.58 83.14, 59.64 83.53 C49.7 83.92, 39.33 82.09, 31.11 79.21 C22.89 76.32, 15.4 72.1, 10.33 66.21 C5.25 60.32, 1.27 51.17, 0.66 43.87 C0.05 36.57, 2.45 28.66, 6.68 22.4 C10.91 16.14, 18.07 10.25, 26.05 6.29 C34.04 2.34, 45.06 -0.78, 54.6 -1.31 C64.13 -1.85, 78.7 1.87, 83.25 3.09 C87.79 4.31, 82.46 5.09, 81.87 5.98" stroke="#1e1e1e" stroke-width="1" fill="none"></path></g><g transform="translate(350.2913951769884 459.1979617995717) rotate(0 32.049964904785156 24.99999999999997)"><text x="32.049964904785156" y="0" font-family="Virgil, Segoe UI Emoji" font-size="20px" fill="#1e1e1e" text-anchor="middle" style="white-space: pre;" direction="ltr" dominant-baseline="text-before-edge">Client </text><text x="32.049964904785156" y="25" font-family="Virgil, Segoe UI Emoji" font-size="20px" fill="#1e1e1e" text-anchor="middle" style="white-space: pre;" direction="ltr" dominant-baseline="text-before-edge">N</text></g><g stroke-linecap="round" transform="translate(877 451.75) rotate(0 50 44)"><path d="M38.49 1.97 C46.95 -0.29, 59.27 -0.2, 67.88 2.28 C76.48 4.76, 84.72 10.56, 90.11 16.86 C95.5 23.16, 99.71 32.08, 100.24 40.08 C100.76 48.08, 97.6 57.71, 93.28 64.86 C88.97 72.01, 82.05 79.22, 74.34 82.99 C66.63 86.76, 55.99 87.93, 47.02 87.48 C38.05 87.04, 27.71 85.08, 20.53 80.32 C13.35 75.55, 7.27 66.42, 3.96 58.88 C0.65 51.33, -0.95 42.67, 0.66 35.06 C2.28 27.45, 6.4 18.93, 13.64 13.21 C20.88 7.49, 37.95 2.92, 44.11 0.74 C50.28 -1.43, 50.24 -0.35, 50.62 0.17 M67.43 3.31 C75.99 4.93, 84.81 10.54, 90.31 16.71 C95.82 22.88, 99.95 32.67, 100.47 40.32 C100.99 47.97, 97.48 55.66, 93.45 62.63 C89.43 69.61, 83.73 78.02, 76.31 82.17 C68.89 86.32, 58.32 88.09, 48.94 87.52 C39.57 86.95, 27.5 83.24, 20.07 78.76 C12.63 74.27, 7.42 68.03, 4.35 60.61 C1.28 53.19, 0.18 41.87, 1.64 34.25 C3.1 26.64, 7.07 20.46, 13.11 14.92 C19.16 9.39, 29.2 2.93, 37.9 1.05 C46.59 -0.84, 60.63 3.28, 65.28 3.59 C69.94 3.89, 66.13 2.52, 65.81 2.88" stroke="#1e1e1e" stroke-width="1" fill="none"></path></g><g transform="translate(900.0946884064929 470.6373016277919) rotate(0 27.049972534179688 25)"><text x="27.049972534179688" y="0" font-family="Virgil, Segoe UI Emoji" font-size="20px" fill="#1e1e1e" text-anchor="middle" style="white-space: pre;" direction="ltr" dominant-baseline="text-before-edge">Client</text><text x="27.049972534179688" y="25" font-family="Virgil, Segoe UI Emoji" font-size="20px" fill="#1e1e1e" text-anchor="middle" style="white-space: pre;" direction="ltr" dominant-baseline="text-before-edge"> a</text></g><g stroke-linecap="round" transform="translate(643 195.75) rotate(0 67.5 42.5)"><path d="M57.67 -0.6 C67.92 -2.12, 81.68 0.31, 92.31 3.16 C102.94 6, 114.43 10.94, 121.46 16.48 C128.48 22.02, 133 29.22, 134.47 36.4 C135.94 43.58, 134.46 53.03, 130.27 59.58 C126.08 66.12, 118.29 71.46, 109.33 75.7 C100.36 79.93, 87.63 84.04, 76.48 85 C65.32 85.95, 52.75 84.06, 42.4 81.43 C32.05 78.8, 21.29 74.69, 14.38 69.23 C7.46 63.76, 2.52 55.7, 0.91 48.64 C-0.69 41.59, 0.4 33.56, 4.74 26.91 C9.08 20.26, 16.35 13.17, 26.95 8.74 C37.55 4.3, 59.63 1.42, 68.34 0.31 C77.04 -0.81, 79.15 1.28, 79.18 2.03 M97.87 5.74 C107.82 8.28, 118.37 12.94, 124.77 18.47 C131.18 24, 135.71 31.63, 136.28 38.92 C136.84 46.21, 133.4 55.86, 128.16 62.2 C122.91 68.54, 114.07 73.42, 104.8 76.96 C95.54 80.5, 83.7 82.73, 72.57 83.47 C61.44 84.21, 48.21 84.33, 38.02 81.41 C27.84 78.5, 17.58 72.19, 11.47 65.98 C5.37 59.76, 2.23 51.27, 1.4 44.12 C0.58 36.97, 1.78 29.18, 6.53 23.09 C11.28 16.99, 20.27 11.46, 29.91 7.53 C39.55 3.61, 53.18 -0.04, 64.38 -0.44 C75.59 -0.85, 91.64 4, 97.15 5.11 C102.66 6.21, 97.95 5.43, 97.43 6.17" stroke="#1e1e1e" stroke-width="1" fill="none"></path></g><g transform="translate(679.4203243133651 225.69796179957171) rotate(0 30.84996795654297 12.5)"><text x="30.84996795654297" y="0" font-family="Virgil, Segoe UI Emoji" font-size="20px" fill="#1e1e1e" text-anchor="middle" style="white-space: pre;" direction="ltr" dominant-baseline="text-before-edge">Server</text></g><g stroke-linecap="round"><g transform="translate(432.9058322149236 441.7595732883316) rotate(0 107.58900294282793 -82.39691792274891)"><path d="M0.69 1.19 C36.75 -26.66, 179.8 -138.11, 215.59 -165.99 M-0.41 0.77 C35.64 -26.37, 179.18 -136.9, 215.09 -164.5" stroke="#e03131" stroke-width="1" fill="none"></path></g><g transform="translate(432.9058322149236 441.7595732883316) rotate(0 107.58900294282793 -82.39691792274891)"><path d="M200.99 -137.76 C202.35 -144, 206 -152.05, 214.67 -163.89 M199.93 -138.52 C202.22 -144.45, 206.39 -150.55, 215.85 -164.52" stroke="#e03131" stroke-width="1" fill="none"></path></g><g transform="translate(432.9058322149236 441.7595732883316) rotate(0 107.58900294282793 -82.39691792274891)"><path d="M188.48 -154.03 C192.9 -156.55, 199.47 -160.82, 214.67 -163.89 M187.42 -154.78 C192.65 -157.06, 199.7 -159.41, 215.85 -164.52" stroke="#e03131" stroke-width="1" fill="none"></path></g></g><mask></mask><g stroke-linecap="round"><g transform="translate(891.0804197398893 453.3100204708311) rotate(0 -69.36350490269575 -84.65368287135772)"><path d="M-0.37 1 C-23.48 -27.56, -116.25 -141.84, -139.78 -170.3 M1.63 0.47 C-21.47 -27.46, -116.89 -141.11, -140.36 -169.31" stroke="#2f9e44" stroke-width="1" fill="none"></path></g><g transform="translate(891.0804197398893 453.3100204708311) rotate(0 -69.36350490269575 -84.65368287135772)"><path d="M-112.74 -153.1 C-121.59 -159.17, -126.03 -161.74, -141.34 -171.07 M-115.35 -154.42 C-120.81 -157.97, -129.16 -162.18, -140.48 -170.17" stroke="#2f9e44" stroke-width="1" fill="none"></path></g><g transform="translate(891.0804197398893 453.3100204708311) rotate(0 -69.36350490269575 -84.65368287135772)"><path d="M-128.48 -139.94 C-134.22 -148.66, -135.43 -153.93, -141.34 -171.07 M-131.1 -141.26 C-132.3 -148.56, -136.29 -156.42, -140.48 -170.17" stroke="#2f9e44" stroke-width="1" fill="none"></path></g></g><mask></mask><g stroke-linecap="round" transform="translate(10 547.75) rotate(0 222.5 47.5)"><path d="M23.75 0 M23.75 0 C103.67 -1, 182.03 -1.77, 421.25 0 M23.75 0 C108.5 -0.56, 193.59 0.06, 421.25 0 M421.25 0 C436.34 0.87, 444.07 6.63, 445 23.75 M421.25 0 C436.75 0.71, 446.15 6.14, 445 23.75 M445 23.75 C445.48 43.55, 443.16 61, 445 71.25 M445 23.75 C443.94 35.36, 443.81 47.64, 445 71.25 M445 71.25 C444.28 86.67, 438.21 96.93, 421.25 95 M445 71.25 C446.43 85.01, 435.92 93.73, 421.25 95 M421.25 95 C312.02 97.35, 202.76 96.82, 23.75 95 M421.25 95 C324.75 95.31, 227.59 94.55, 23.75 95 M23.75 95 C7.82 95.3, -0.35 89.03, 0 71.25 M23.75 95 C6.15 92.82, 0.14 85.97, 0 71.25 M0 71.25 C1.05 56.01, -1.62 40.42, 0 23.75 M0 71.25 C0.92 54.21, 0.61 38.28, 0 23.75 M0 23.75 C0.22 8.8, 6.61 0.39, 23.75 0 M0 23.75 C2.29 5.7, 6.99 1.25, 23.75 0" stroke="#1e1e1e" stroke-width="1" fill="none"></path></g><g transform="translate(179.71005249023438 582.75) rotate(0 52.789947509765625 12.5)"><text x="52.789947509765625" y="0" font-family="Virgil, Segoe UI Emoji" font-size="20px" fill="#1e1e1e" text-anchor="middle" style="white-space: pre;" direction="ltr" dominant-baseline="text-before-edge">IMG Data</text></g><g stroke-linecap="round" transform="translate(825.5 552.25) rotate(0 247 47.5)"><path d="M23.75 0 M23.75 0 C150.68 0.59, 276.87 1.02, 470.25 0 M23.75 0 C200.94 -0.73, 379.19 -1.07, 470.25 0 M470.25 0 C484.13 -0.11, 493.77 6.47, 494 23.75 M470.25 0 C488.33 1.53, 494.74 5.8, 494 23.75 M494 23.75 C495.1 36.68, 494.85 50.97, 494 71.25 M494 23.75 C494.57 33.33, 493.75 44.2, 494 71.25 M494 71.25 C495.54 88.05, 486.24 93.9, 470.25 95 M494 71.25 C493.91 85.95, 486.71 94.7, 470.25 95 M470.25 95 C339.32 96.99, 207.95 96.02, 23.75 95 M470.25 95 C299.41 94.89, 129.2 94.35, 23.75 95 M23.75 95 C8.17 93.53, -1.79 86.87, 0 71.25 M23.75 95 C6.46 95.7, -2.22 88.35, 0 71.25 M0 71.25 C-1.68 52.26, -0.95 37.53, 0 23.75 M0 71.25 C-0.3 59.22, 0.76 44.53, 0 23.75 M0 23.75 C1.29 6.31, 9.04 1.63, 23.75 0 M0 23.75 C-0.83 9.69, 9.56 1.15, 23.75 0" stroke="#1e1e1e" stroke-width="1" fill="none"></path></g><g transform="translate(1021.680061340332 587.25) rotate(0 50.81993865966797 12.5)"><text x="50.81993865966797" y="0" font-family="Virgil, Segoe UI Emoji" font-size="20px" fill="#1e1e1e" text-anchor="middle" style="white-space: pre;" direction="ltr" dominant-baseline="text-before-edge">EHR Data</text></g><g stroke-linecap="round" transform="translate(402 580.75) rotate(0 232 42.5)"><path d="M21.25 0 M21.25 0 C182.41 0.81, 343.48 1.31, 442.75 0 M21.25 0 C121.89 0.82, 222.57 1.16, 442.75 0 M442.75 0 C457.34 -1.51, 464.9 8.81, 464 21.25 M442.75 0 C457.63 0.11, 465.92 7.34, 464 21.25 M464 21.25 C463.05 33.51, 464.46 48.22, 464 63.75 M464 21.25 C463.6 36.13, 464.51 51.68, 464 63.75 M464 63.75 C465.87 76.35, 455.82 85.22, 442.75 85 M464 63.75 C463.85 79.56, 454.67 86.96, 442.75 85 M442.75 85 C331.33 83.55, 217.53 82.71, 21.25 85 M442.75 85 C341.37 84.03, 240.04 84.6, 21.25 85 M21.25 85 C8.2 85.27, 1.82 78.65, 0 63.75 M21.25 85 C5.23 87, 0.16 79.17, 0 63.75 M0 63.75 C-1.74 53.43, -0.88 40.26, 0 21.25 M0 63.75 C-0.7 50.27, -0.53 36.86, 0 21.25 M0 21.25 C-1.85 8.26, 8.31 -0.45, 21.25 0 M0 21.25 C1.08 8.01, 6.55 -2.28, 21.25 0" stroke="#1971c2" stroke-width="1" fill="none"></path></g><g transform="translate(511.1701354980469 610.75) rotate(0 122.82986450195312 12.5)"><text x="122.82986450195312" y="0" font-family="Virgil, Segoe UI Emoji" font-size="20px" fill="#1971c2" text-anchor="middle" style="white-space: pre;" direction="ltr" dominant-baseline="text-before-edge">Private Set Intersection</text></g><g transform="translate(545.5100402832031 386.25) rotate(0 31.059967041015625 12.5)"><text x="0" y="0" font-family="Virgil, Segoe UI Emoji" font-size="20px" fill="#e03131" text-anchor="start" style="white-space: pre;" direction="ltr" dominant-baseline="text-before-edge">tensor</text></g><g stroke-linecap="round"><g transform="translate(638.5093333179848 262.78270656980084) rotate(0 -114.98313205388081 85.34159058417012)"><path d="M0.54 -0.09 C-38.05 28.48, -192.03 141.76, -230.5 170.35 M-0.64 -1.19 C-38.92 27.69, -189.72 143.39, -228.18 171.87" stroke="#1e1e1e" stroke-width="1" fill="none"></path></g><g transform="translate(638.5093333179848 262.78270656980084) rotate(0 -114.98313205388081 85.34159058417012)"><path d="M-212.03 145.46 C-218.41 155.48, -222.77 167.76, -228.89 170.5 M-212.79 147 C-215.77 153.61, -219.22 157.91, -228.83 171.71" stroke="#1e1e1e" stroke-width="1" fill="none"></path></g><g transform="translate(638.5093333179848 262.78270656980084) rotate(0 -114.98313205388081 85.34159058417012)"><path d="M-199.65 161.83 C-210.62 165.64, -219.72 171.66, -228.89 170.5 M-200.42 163.37 C-206.46 166.18, -212.84 166.6, -228.83 171.71" stroke="#1e1e1e" stroke-width="1" fill="none"></path></g></g><mask></mask><g transform="translate(1032 297.75) rotate(0 45.07994842529297 12.5)"><text x="0" y="0" font-family="Virgil, Segoe UI Emoji" font-size="20px" fill="#1e1e1e" text-anchor="start" style="white-space: pre;" direction="ltr" dominant-baseline="text-before-edge">gradients</text></g><g stroke-linecap="round" transform="translate(23 447.75) rotate(0 56 42.5)"><path d="M57.83 0.24 C66.67 -0.39, 78.04 2.24, 85.95 5.89 C93.85 9.54, 101.02 15.62, 105.28 22.13 C109.54 28.64, 111.75 37.94, 111.51 44.94 C111.28 51.94, 108.68 58.16, 103.86 64.13 C99.03 70.11, 90.97 77.36, 82.55 80.8 C74.14 84.24, 62.61 85.3, 53.36 84.78 C44.11 84.26, 34.87 81.28, 27.07 77.67 C19.27 74.06, 11.09 69.35, 6.55 63.13 C2 56.91, -0.38 47.4, -0.19 40.34 C-0.01 33.29, 2.58 26.73, 7.66 20.79 C12.74 14.84, 20.93 8.2, 30.29 4.66 C39.66 1.13, 57.5 0.15, 63.84 -0.41 C70.17 -0.97, 68.71 0.63, 68.3 1.32 M79.39 2.91 C88.02 5.25, 97.18 11.34, 102.57 17.11 C107.95 22.89, 111.23 30.41, 111.7 37.57 C112.18 44.74, 109.58 53.48, 105.41 60.11 C101.24 66.74, 94.34 73.23, 86.68 77.35 C79.02 81.48, 68.37 84.26, 59.44 84.85 C50.5 85.45, 41.08 84.11, 33.08 80.91 C25.08 77.72, 17.01 71.59, 11.43 65.69 C5.85 59.79, 0.63 52.39, -0.39 45.53 C-1.4 38.67, 1.42 30.84, 5.35 24.53 C9.27 18.21, 15.27 11.6, 23.16 7.63 C31.05 3.66, 43.39 1.15, 52.67 0.69 C61.95 0.23, 74.57 4.28, 78.82 4.85 C83.08 5.43, 78.23 3.86, 78.18 4.14" stroke="#1e1e1e" stroke-width="1" fill="none"></path></g><g transform="translate(46.852055348768175 465.1979617995717) rotate(0 32.049964904785156 24.99999999999997)"><text x="32.049964904785156" y="0" font-family="Virgil, Segoe UI Emoji" font-size="20px" fill="#1e1e1e" text-anchor="middle" style="white-space: pre;" direction="ltr" dominant-baseline="text-before-edge">Client </text><text x="32.049964904785156" y="25" font-family="Virgil, Segoe UI Emoji" font-size="20px" fill="#1e1e1e" text-anchor="middle" style="white-space: pre;" direction="ltr" dominant-baseline="text-before-edge">1</text></g><g transform="translate(326.92005157470703 286.25) rotate(0 45.07994842529297 12.5)"><text x="0" y="0" font-family="Virgil, Segoe UI Emoji" font-size="20px" fill="#1e1e1e" text-anchor="start" style="white-space: pre;" direction="ltr" dominant-baseline="text-before-edge">gradients</text></g><g transform="translate(224 470.75) rotate(0 8.219993591308594 12.5)"><text x="0" y="0" font-family="Virgil, Segoe UI Emoji" font-size="20px" fill="#1e1e1e" text-anchor="start" style="white-space: pre;" direction="ltr" dominant-baseline="text-before-edge">...</text></g><g stroke-linecap="round"><g transform="translate(633.9071723867314 235.92186406936577) rotate(0 -255.756804964198 105.68463987406736)"><path d="M-1.19 -0.33 C-86.3 34.92, -426.03 176.04, -510.68 211.61 M0.39 -1.54 C-84.92 33.85, -426.95 177.44, -511.9 212.91" stroke="#1e1e1e" stroke-width="1" fill="none"></path></g><g transform="translate(633.9071723867314 235.92186406936577) rotate(0 -255.756804964198 105.68463987406736)"><path d="M-490.41 191.7 C-497.13 200.13, -501.2 204.06, -511.69 214.78 M-490.26 192.98 C-498.01 198.96, -506.51 207.35, -512.02 212.82" stroke="#1e1e1e" stroke-width="1" fill="none"></path></g><g transform="translate(633.9071723867314 235.92186406936577) rotate(0 -255.756804964198 105.68463987406736)"><path d="M-482.48 210.63 C-491.58 213.35, -498 211.66, -511.69 214.78 M-482.33 211.91 C-493.03 210.97, -504.4 212.48, -512.02 212.82" stroke="#1e1e1e" stroke-width="1" fill="none"></path></g></g><mask></mask><g stroke-linecap="round"><g transform="translate(134.3747781752493 469.7485887050083) rotate(0 248.59568092242455 -110.64653394610977)"><path d="M0.3 -0.03 C83.31 -36.8, 415.24 -184.29, 498.2 -221.26 M-1.01 -1.09 C81.86 -37.65, 414.31 -183.3, 497.36 -219.96" stroke="#e03131" stroke-width="1" fill="none"></path></g><g transform="translate(134.3747781752493 469.7485887050083) rotate(0 248.59568092242455 -110.64653394610977)"><path d="M475.63 -198.87 C481.72 -205.54, 487.43 -211, 497.52 -218.82 M474.69 -199.5 C482.72 -205.61, 488.81 -210.55, 497.94 -220.34" stroke="#e03131" stroke-width="1" fill="none"></path></g><g transform="translate(134.3747781752493 469.7485887050083) rotate(0 248.59568092242455 -110.64653394610977)"><path d="M467.37 -217.66 C475.9 -218.57, 484.15 -218.25, 497.52 -218.82 M466.43 -218.29 C476.74 -219.08, 485.2 -218.64, 497.94 -220.34" stroke="#e03131" stroke-width="1" fill="none"></path></g></g><mask></mask><g transform="translate(18.75 10) rotate(0 139.45458984375 17.5)"><text x="0" y="0" font-family="Virgil, Segoe UI Emoji" font-size="28px" fill="#1e1e1e" text-anchor="start" style="white-space: pre;" direction="ltr" dominant-baseline="text-before-edge">SplitNN Architecture</text></g><g stroke-linecap="round" transform="translate(1156 457.75) rotate(0 50 44)"><path d="M37.17 1.16 C45.33 -1.39, 57.69 -1.25, 66.52 1.44 C75.34 4.13, 84.43 10.92, 90.1 17.31 C95.77 23.69, 99.7 31.88, 100.55 39.77 C101.39 47.66, 99.43 57.62, 95.17 64.63 C90.92 71.64, 82.84 78.11, 75 81.83 C67.17 85.56, 57.02 87.25, 48.17 86.98 C39.33 86.71, 29.33 84.74, 21.94 80.23 C14.55 75.73, 7.33 67.5, 3.83 59.96 C0.33 52.41, -0.77 42.69, 0.93 34.98 C2.62 27.27, 7.6 19.5, 14 13.72 C20.4 7.94, 34.75 2.48, 39.34 0.3 C43.93 -1.89, 41.15 -0.21, 41.56 0.58 M67.61 1.62 C76 3.51, 85.17 10.34, 90.7 16.65 C96.23 22.95, 100.11 31.66, 100.78 39.44 C101.45 47.23, 99.25 56.44, 94.73 63.37 C90.2 70.3, 81.62 77.15, 73.64 81.04 C65.66 84.92, 55.87 86.71, 46.87 86.68 C37.86 86.65, 26.79 85.49, 19.6 80.86 C12.4 76.22, 6.69 66.71, 3.69 58.88 C0.7 51.05, -0.31 41.41, 1.62 33.9 C3.56 26.39, 9.16 19.19, 15.31 13.82 C21.45 8.46, 30.1 3.6, 38.5 1.72 C46.9 -0.16, 60.93 2, 65.72 2.53 C70.5 3.07, 67.3 4.04, 67.22 4.92" stroke="#1e1e1e" stroke-width="1" fill="none"></path></g><g transform="translate(1179.0946884064929 476.6373016277919) rotate(0 27.049972534179688 25)"><text x="27.049972534179688" y="0" font-family="Virgil, Segoe UI Emoji" font-size="20px" fill="#1e1e1e" text-anchor="middle" style="white-space: pre;" direction="ltr" dominant-baseline="text-before-edge">Client</text><text x="27.049972534179688" y="25" font-family="Virgil, Segoe UI Emoji" font-size="20px" fill="#1e1e1e" text-anchor="middle" style="white-space: pre;" direction="ltr" dominant-baseline="text-before-edge">z</text></g><g transform="translate(1056.7800064086914 480.25) rotate(0 8.219993591308594 12.5)"><text x="0" y="0" font-family="Virgil, Segoe UI Emoji" font-size="20px" fill="#1e1e1e" text-anchor="start" style="white-space: pre;" direction="ltr" dominant-baseline="text-before-edge">...</text></g><g transform="translate(765.9400329589844 401.25) rotate(0 31.059967041015625 12.5)"><text x="0" y="0" font-family="Virgil, Segoe UI Emoji" font-size="20px" fill="#2f9e44" text-anchor="start" style="white-space: pre;" direction="ltr" dominant-baseline="text-before-edge">tensor</text></g><g stroke-linecap="round"><g transform="translate(1171 465.75) rotate(0 -194.41641594816468 -104.82460386976598)"><path d="M0.79 0.18 C-64.16 -34.84, -324 -175.16, -388.79 -209.83 M-0.25 -0.77 C-65.42 -35.68, -324.98 -173.92, -389.62 -208.73" stroke="#2f9e44" stroke-width="1" fill="none"></path></g><g transform="translate(1171 465.75) rotate(0 -194.41641594816468 -104.82460386976598)"><path d="M-359.62 -204.12 C-372.47 -204.08, -380.35 -207.49, -389.59 -208.5 M-360.7 -204.97 C-369.12 -206.67, -380.12 -206.98, -389.03 -208.44" stroke="#2f9e44" stroke-width="1" fill="none"></path></g><g transform="translate(1171 465.75) rotate(0 -194.41641594816468 -104.82460386976598)"><path d="M-369.31 -186.03 C-378.56 -192.84, -382.8 -203.05, -389.59 -208.5 M-370.38 -186.88 C-375.52 -194.42, -383.35 -200.65, -389.03 -208.44" stroke="#2f9e44" stroke-width="1" fill="none"></path></g></g><mask></mask><g transform="translate(1352 436.75) rotate(0 153.9298095703125 50)"><text x="0" y="0" font-family="Virgil, Segoe UI Emoji" font-size="20px" fill="#1e1e1e" text-anchor="start" style="white-space: pre;" direction="ltr" dominant-baseline="text-before-edge">Clients </text><text x="0" y="25" font-family="Virgil, Segoe UI Emoji" font-size="20px" fill="#1e1e1e" text-anchor="start" style="white-space: pre;" direction="ltr" dominant-baseline="text-before-edge">- train on data</text><text x="0" y="50" font-family="Virgil, Segoe UI Emoji" font-size="20px" fill="#1e1e1e" text-anchor="start" style="white-space: pre;" direction="ltr" dominant-baseline="text-before-edge">- will send tensor to server</text><text x="0" y="75" font-family="Virgil, Segoe UI Emoji" font-size="20px" fill="#1e1e1e" text-anchor="start" style="white-space: pre;" direction="ltr" dominant-baseline="text-before-edge">- receive gradient for optimizer</text></g><g transform="translate(634 65.75) rotate(0 226.58975219726562 50)"><text x="0" y="0" font-family="Virgil, Segoe UI Emoji" font-size="20px" fill="#1e1e1e" text-anchor="start" style="white-space: pre;" direction="ltr" dominant-baseline="text-before-edge">Server</text><text x="0" y="25" font-family="Virgil, Segoe UI Emoji" font-size="20px" fill="#1e1e1e" text-anchor="start" style="white-space: pre;" direction="ltr" dominant-baseline="text-before-edge">- has the labels</text><text x="0" y="50" font-family="Virgil, Segoe UI Emoji" font-size="20px" fill="#1e1e1e" text-anchor="start" style="white-space: pre;" direction="ltr" dominant-baseline="text-before-edge">- collects tensors and perform global function</text><text x="0" y="75" font-family="Virgil, Segoe UI Emoji" font-size="20px" fill="#1e1e1e" text-anchor="start" style="white-space: pre;" direction="ltr" dominant-baseline="text-before-edge">- backpropagration </text></g><g stroke-linecap="round"><g transform="translate(768 278.75) rotate(0 71.13356461301447 84.43699875493533)"><path d="M-0.75 -0.43 C23.12 27.87, 119.2 140.78, 143.01 169.03 M1.06 -1.7 C24.79 26.87, 118.15 141.89, 142.07 170.58" stroke="#1e1e1e" stroke-width="1" fill="none"></path></g><g transform="translate(768 278.75) rotate(0 71.13356461301447 84.43699875493533)"><path d="M115.53 155.33 C123.51 158.36, 130.91 165.17, 141.61 170.38 M116.59 155.54 C122.2 158.43, 128.38 163.43, 141.73 169.6" stroke="#1e1e1e" stroke-width="1" fill="none"></path></g><g transform="translate(768 278.75) rotate(0 71.13356461301447 84.43699875493533)"><path d="M131.39 142.3 C134.79 148.93, 137.7 159.43, 141.61 170.38 M132.45 142.51 C134 148.69, 136.18 156.98, 141.73 169.6" stroke="#1e1e1e" stroke-width="1" fill="none"></path></g></g><mask></mask><g stroke-linecap="round"><g transform="translate(790 241.75) rotate(0 196.7363337732852 103.26757024750114)"><path d="M-1.12 -0.95 C64.73 33.63, 328.71 172.79, 394.59 207.48 M0.49 1.17 C66.29 35.38, 328.46 171.04, 393.96 205.61" stroke="#1e1e1e" stroke-width="1" fill="none"></path></g><g transform="translate(790 241.75) rotate(0 196.7363337732852 103.26757024750114)"><path d="M362.64 202.66 C372.63 203.24, 379.72 204.26, 394.68 204.73 M363.88 202 C374.46 203.79, 382.94 204.21, 393.32 206.19" stroke="#1e1e1e" stroke-width="1" fill="none"></path></g><g transform="translate(790 241.75) rotate(0 196.7363337732852 103.26757024750114)"><path d="M372.14 184.46 C379.7 189.61, 384.36 195.28, 394.68 204.73 M373.37 183.8 C380.74 191.59, 386.1 197.98, 393.32 206.19" stroke="#1e1e1e" stroke-width="1" fill="none"></path></g></g><mask></mask><g transform="translate(408 682.75) rotate(0 239.50973510742188 37.5)"><text x="0" y="0" font-family="Virgil, Segoe UI Emoji" font-size="20px" fill="#1e1e1e" text-anchor="start" style="white-space: pre;" direction="ltr" dominant-baseline="text-before-edge">Note: due to Transformer architecture, </text><text x="0" y="25" font-family="Virgil, Segoe UI Emoji" font-size="20px" fill="#1e1e1e" text-anchor="start" style="white-space: pre;" direction="ltr" dominant-baseline="text-before-edge">we may also be able to train on non-intersecting</text><text x="0" y="50" font-family="Virgil, Segoe UI Emoji" font-size="20px" fill="#1e1e1e" text-anchor="start" style="white-space: pre;" direction="ltr" dominant-baseline="text-before-edge">sets!</text></g></svg>